<svg width="95" height="32" viewBox="0 0 95 32" fill="none" xmlns="http://www.w3.org/2000/svg">
    <path fill-rule="evenodd" clip-rule="evenodd" d="M57.1523 0H53.2486V3.93456H57.1523V0ZM33.4789 16.5525H21.3086C21.7678 18.9824 23.2603 20.371 25.6715 20.371C27.3937 20.371 28.427 19.6763 28.8863 18.5195H33.1344C32.2159 21.8755 29.3455 23.727 25.4418 23.727C20.8493 23.727 17.4049 20.2554 17.4049 15.163C17.4049 10.187 20.8493 6.60016 25.4418 6.60016C30.0343 6.60016 33.4789 10.0718 33.4789 15.163C33.5937 15.742 33.5937 16.2051 33.4789 16.5525ZM3.90369 23.5535H3.78892V14.5273C3.78892 11.7498 5.16667 10.2455 7.23337 10.2455C9.41484 10.2455 10.6778 11.75 10.6778 14.5273V23.5535H14.6963V13.7172C14.6963 9.08824 12.0556 6.77385 8.61111 6.77385C6.54441 6.77385 4.93696 7.69961 3.90369 9.43545V7.12122H0V23.5535H3.78892V23.5537L3.90369 23.5535ZM29.69 13.7749H21.3086C21.7678 11.4605 23.1454 10.1875 25.4418 10.1875C27.7382 10.1875 29.2307 11.4605 29.69 13.7749ZM53.2486 23.5537V7.12122H57.1523V23.5537H53.2486ZM60.1997 24.8253C60.773 29.1069 63.9878 32 68.3507 32C72.8286 32 76.3878 28.5285 76.5026 23.5525V7.12001H72.5989V9.20409C71.4597 7.67521 69.6737 6.7751 67.7767 6.77385C63.299 6.77385 59.9693 10.3607 59.9693 15.3367C59.9693 20.4278 63.299 23.8995 67.7767 23.8995C69.6737 23.8983 71.4597 22.9982 72.5989 21.4693V23.5523C72.5989 26.3296 70.9914 28.4126 68.3507 28.4126C66.0545 28.4126 64.4472 27.024 64.1025 24.8253H60.1997ZM72.4841 15.3355C72.4841 12.4423 70.6471 10.4751 68.1212 10.4751C65.5952 10.4751 63.7582 12.443 63.7582 15.3355C63.7582 18.2279 65.5952 20.1965 68.1203 20.1965C70.6454 20.1965 72.4841 18.2291 72.4841 15.3355ZM80.3037 23.5535H84.2074V14.5273C84.2074 11.7498 85.5852 10.2455 87.6519 10.2455C89.8333 10.2455 91.0963 11.75 91.0963 14.5273V23.5535H95V13.7172C95 9.08824 92.3593 6.77385 88.9148 6.77385C86.8481 6.77385 85.2407 7.69961 84.2074 9.43545V7.12122H80.3037V23.5535ZM40.3202 16.8478V23.4439H33.7758L40.3202 16.8478ZM44.977 7.12122V13.6017L51.4066 7.12122H44.977ZM51.3423 23.5537L39.0573 7.12122H33.7758L46.1757 23.5537H51.3423Z" fill="#39AA34"/>
</svg>
